<mxfile host="app.diagrams.net" modified="2023-07-12T21:42:06.067Z" agent="Mozilla/5.0 (Windows NT 10.0; Win64; x64) AppleWebKit/537.36 (KHTML, like Gecko) Chrome/114.0.0.0 Safari/537.36" etag="A1utD8qrS7b-ybnJgo6p" version="21.6.1" type="device">
  <diagram name="Page-1" id="YfO1AaealCDPlV8Lao2m">
    <mxGraphModel dx="1434" dy="830" grid="0" gridSize="10" guides="1" tooltips="1" connect="1" arrows="1" fold="1" page="0" pageScale="1" pageWidth="850" pageHeight="1100" math="0" shadow="0">
      <root>
        <mxCell id="0" />
        <mxCell id="1" parent="0" />
        <mxCell id="5kWQQ1zVskAaq1WhmGek-12" value="" style="endArrow=open;endFill=1;endSize=12;html=1;rounded=0;fontSize=12;curved=1;entryX=0.5;entryY=1;entryDx=0;entryDy=0;exitX=0.5;exitY=0;exitDx=0;exitDy=0;" parent="1" edge="1">
          <mxGeometry width="160" relative="1" as="geometry">
            <mxPoint x="74" y="129" as="sourcePoint" />
            <mxPoint x="72" y="70" as="targetPoint" />
          </mxGeometry>
        </mxCell>
        <mxCell id="5kWQQ1zVskAaq1WhmGek-13" value="" style="endArrow=open;endFill=1;endSize=12;html=1;rounded=0;fontSize=12;curved=1;exitX=0.5;exitY=0;exitDx=0;exitDy=0;entryX=0.5;entryY=1;entryDx=0;entryDy=0;" parent="1" target="lczZz4IBj45nSS2UDRoz-14" edge="1">
          <mxGeometry width="160" relative="1" as="geometry">
            <mxPoint x="180" y="292" as="sourcePoint" />
            <mxPoint x="74" y="190" as="targetPoint" />
          </mxGeometry>
        </mxCell>
        <mxCell id="5kWQQ1zVskAaq1WhmGek-14" value="" style="endArrow=open;endFill=1;endSize=12;html=1;rounded=0;fontSize=12;curved=1;exitX=0.5;exitY=0;exitDx=0;exitDy=0;entryX=0.5;entryY=1;entryDx=0;entryDy=0;" parent="1" target="lczZz4IBj45nSS2UDRoz-16" edge="1">
          <mxGeometry width="160" relative="1" as="geometry">
            <mxPoint x="180" y="292" as="sourcePoint" />
            <mxPoint x="299.5" y="187" as="targetPoint" />
          </mxGeometry>
        </mxCell>
        <mxCell id="lczZz4IBj45nSS2UDRoz-12" value="Model" style="html=1;whiteSpace=wrap;" vertex="1" parent="1">
          <mxGeometry x="19" y="21" width="110" height="50" as="geometry" />
        </mxCell>
        <mxCell id="lczZz4IBj45nSS2UDRoz-14" value="Make" style="html=1;whiteSpace=wrap;" vertex="1" parent="1">
          <mxGeometry x="22" y="128" width="110" height="50" as="geometry" />
        </mxCell>
        <mxCell id="lczZz4IBj45nSS2UDRoz-16" value="Type" style="html=1;whiteSpace=wrap;" vertex="1" parent="1">
          <mxGeometry x="235" y="128" width="110" height="50" as="geometry" />
        </mxCell>
        <mxCell id="lczZz4IBj45nSS2UDRoz-17" value="&lt;p style=&quot;margin:0px;margin-top:4px;text-align:center;&quot;&gt;&lt;br&gt;&lt;b&gt;Vehicle&lt;/b&gt;&lt;/p&gt;" style="verticalAlign=top;align=left;overflow=fill;fontSize=12;fontFamily=Helvetica;html=1;whiteSpace=wrap;" vertex="1" parent="1">
          <mxGeometry x="112" y="291" width="140" height="60" as="geometry" />
        </mxCell>
        <mxCell id="lczZz4IBj45nSS2UDRoz-19" value="EngineType" style="swimlane;fontStyle=0;childLayout=stackLayout;horizontal=1;startSize=26;fillColor=none;horizontalStack=0;resizeParent=1;resizeParentMax=0;resizeLast=0;collapsible=1;marginBottom=0;whiteSpace=wrap;html=1;" vertex="1" parent="1">
          <mxGeometry x="-53" y="-132" width="140" height="104" as="geometry" />
        </mxCell>
        <mxCell id="lczZz4IBj45nSS2UDRoz-20" value="+ Gasoline" style="text;strokeColor=none;fillColor=none;align=left;verticalAlign=top;spacingLeft=4;spacingRight=4;overflow=hidden;rotatable=0;points=[[0,0.5],[1,0.5]];portConstraint=eastwest;whiteSpace=wrap;html=1;" vertex="1" parent="lczZz4IBj45nSS2UDRoz-19">
          <mxGeometry y="26" width="140" height="26" as="geometry" />
        </mxCell>
        <mxCell id="lczZz4IBj45nSS2UDRoz-21" value="+ Diesel" style="text;strokeColor=none;fillColor=none;align=left;verticalAlign=top;spacingLeft=4;spacingRight=4;overflow=hidden;rotatable=0;points=[[0,0.5],[1,0.5]];portConstraint=eastwest;whiteSpace=wrap;html=1;" vertex="1" parent="lczZz4IBj45nSS2UDRoz-19">
          <mxGeometry y="52" width="140" height="26" as="geometry" />
        </mxCell>
        <mxCell id="lczZz4IBj45nSS2UDRoz-22" value="+ Electric" style="text;strokeColor=none;fillColor=none;align=left;verticalAlign=top;spacingLeft=4;spacingRight=4;overflow=hidden;rotatable=0;points=[[0,0.5],[1,0.5]];portConstraint=eastwest;whiteSpace=wrap;html=1;" vertex="1" parent="lczZz4IBj45nSS2UDRoz-19">
          <mxGeometry y="78" width="140" height="26" as="geometry" />
        </mxCell>
        <mxCell id="lczZz4IBj45nSS2UDRoz-23" value="MakeType" style="swimlane;fontStyle=0;childLayout=stackLayout;horizontal=1;startSize=26;fillColor=none;horizontalStack=0;resizeParent=1;resizeParentMax=0;resizeLast=0;collapsible=1;marginBottom=0;whiteSpace=wrap;html=1;" vertex="1" parent="1">
          <mxGeometry x="125" y="-152" width="140" height="156" as="geometry" />
        </mxCell>
        <mxCell id="lczZz4IBj45nSS2UDRoz-24" value="+ Ford" style="text;strokeColor=none;fillColor=none;align=left;verticalAlign=top;spacingLeft=4;spacingRight=4;overflow=hidden;rotatable=0;points=[[0,0.5],[1,0.5]];portConstraint=eastwest;whiteSpace=wrap;html=1;" vertex="1" parent="lczZz4IBj45nSS2UDRoz-23">
          <mxGeometry y="26" width="140" height="26" as="geometry" />
        </mxCell>
        <mxCell id="lczZz4IBj45nSS2UDRoz-25" value="+ Toyota" style="text;strokeColor=none;fillColor=none;align=left;verticalAlign=top;spacingLeft=4;spacingRight=4;overflow=hidden;rotatable=0;points=[[0,0.5],[1,0.5]];portConstraint=eastwest;whiteSpace=wrap;html=1;" vertex="1" parent="lczZz4IBj45nSS2UDRoz-23">
          <mxGeometry y="52" width="140" height="26" as="geometry" />
        </mxCell>
        <object label="+ Dodge" id="lczZz4IBj45nSS2UDRoz-26">
          <mxCell style="text;strokeColor=none;fillColor=none;align=left;verticalAlign=top;spacingLeft=4;spacingRight=4;overflow=hidden;rotatable=0;points=[[0,0.5],[1,0.5]];portConstraint=eastwest;whiteSpace=wrap;html=1;" vertex="1" parent="lczZz4IBj45nSS2UDRoz-23">
            <mxGeometry y="78" width="140" height="26" as="geometry" />
          </mxCell>
        </object>
        <object label="+ Honda" id="lczZz4IBj45nSS2UDRoz-30">
          <mxCell style="text;strokeColor=none;fillColor=none;align=left;verticalAlign=top;spacingLeft=4;spacingRight=4;overflow=hidden;rotatable=0;points=[[0,0.5],[1,0.5]];portConstraint=eastwest;whiteSpace=wrap;html=1;" vertex="1" parent="lczZz4IBj45nSS2UDRoz-23">
            <mxGeometry y="104" width="140" height="26" as="geometry" />
          </mxCell>
        </object>
        <mxCell id="lczZz4IBj45nSS2UDRoz-29" value="+ Tesla" style="text;strokeColor=none;fillColor=none;align=left;verticalAlign=top;spacingLeft=4;spacingRight=4;overflow=hidden;rotatable=0;points=[[0,0.5],[1,0.5]];portConstraint=eastwest;whiteSpace=wrap;html=1;" vertex="1" parent="lczZz4IBj45nSS2UDRoz-23">
          <mxGeometry y="130" width="140" height="26" as="geometry" />
        </mxCell>
        <mxCell id="lczZz4IBj45nSS2UDRoz-31" value="VehicleType" style="swimlane;fontStyle=0;childLayout=stackLayout;horizontal=1;startSize=26;fillColor=none;horizontalStack=0;resizeParent=1;resizeParentMax=0;resizeLast=0;collapsible=1;marginBottom=0;whiteSpace=wrap;html=1;" vertex="1" parent="1">
          <mxGeometry x="304" y="-137" width="140" height="104" as="geometry" />
        </mxCell>
        <mxCell id="lczZz4IBj45nSS2UDRoz-32" value="+ Sedan" style="text;strokeColor=none;fillColor=none;align=left;verticalAlign=top;spacingLeft=4;spacingRight=4;overflow=hidden;rotatable=0;points=[[0,0.5],[1,0.5]];portConstraint=eastwest;whiteSpace=wrap;html=1;" vertex="1" parent="lczZz4IBj45nSS2UDRoz-31">
          <mxGeometry y="26" width="140" height="26" as="geometry" />
        </mxCell>
        <mxCell id="lczZz4IBj45nSS2UDRoz-33" value="+ Coupe" style="text;strokeColor=none;fillColor=none;align=left;verticalAlign=top;spacingLeft=4;spacingRight=4;overflow=hidden;rotatable=0;points=[[0,0.5],[1,0.5]];portConstraint=eastwest;whiteSpace=wrap;html=1;" vertex="1" parent="lczZz4IBj45nSS2UDRoz-31">
          <mxGeometry y="52" width="140" height="26" as="geometry" />
        </mxCell>
        <mxCell id="lczZz4IBj45nSS2UDRoz-34" value="+ Truck" style="text;strokeColor=none;fillColor=none;align=left;verticalAlign=top;spacingLeft=4;spacingRight=4;overflow=hidden;rotatable=0;points=[[0,0.5],[1,0.5]];portConstraint=eastwest;whiteSpace=wrap;html=1;" vertex="1" parent="lczZz4IBj45nSS2UDRoz-31">
          <mxGeometry y="78" width="140" height="26" as="geometry" />
        </mxCell>
        <mxCell id="lczZz4IBj45nSS2UDRoz-36" value="&lt;p style=&quot;margin:0px;margin-top:4px;text-align:center;&quot;&gt;&lt;b&gt;&lt;br&gt;CIS255_Vehicle&lt;/b&gt;&lt;br&gt;&lt;/p&gt;" style="verticalAlign=top;align=left;overflow=fill;fontSize=12;fontFamily=Helvetica;html=1;whiteSpace=wrap;" vertex="1" parent="1">
          <mxGeometry x="112" y="395" width="140" height="60" as="geometry" />
        </mxCell>
        <mxCell id="lczZz4IBj45nSS2UDRoz-38" value="" style="endArrow=open;endFill=1;endSize=12;html=1;rounded=0;exitX=0.5;exitY=0;exitDx=0;exitDy=0;entryX=0.5;entryY=1;entryDx=0;entryDy=0;" edge="1" parent="1" source="lczZz4IBj45nSS2UDRoz-36" target="lczZz4IBj45nSS2UDRoz-17">
          <mxGeometry width="160" relative="1" as="geometry">
            <mxPoint x="-6" y="236" as="sourcePoint" />
            <mxPoint x="154" y="236" as="targetPoint" />
          </mxGeometry>
        </mxCell>
      </root>
    </mxGraphModel>
  </diagram>
</mxfile>
